<?xml version="1.0" encoding="UTF-8"?>
<svg width="752pt" height="752pt" version="1.1" viewBox="0 0 752 752" xmlns="http://www.w3.org/2000/svg">
 <path d="m480.19 233.93h-47.355v-18.941c0-15.672-12.742-28.414-28.414-28.414h-56.832c-15.672 0-28.414 12.742-28.414 28.414v18.941h-47.359c-15.672 0-28.414 12.742-28.414 28.414v28.414c0 5.2266 4.2422 9.4727 9.4727 9.4727h246.26c5.2266 0 9.4727-4.2422 9.4727-9.4727v-28.414c0-15.668-12.746-28.414-28.418-28.414zm-142.07-18.941c0-5.2227 4.2461-9.4727 9.4727-9.4727h56.828c5.2227 0 9.4727 4.2461 9.4727 9.4727v18.941h-75.773zm-85.242 303.09c0 26.113 21.246 47.359 47.359 47.359h151.55c26.113 0 47.359-21.246 47.359-47.359l-0.003907-198.9h-246.26zm170.49-151.54c0-5.2266 4.2422-9.4727 9.4727-9.4727 5.2266 0 9.4727 4.2422 9.4727 9.4727v151.55c0 5.2266-4.2422 9.4727-9.4727 9.4727-5.2266 0-9.4727-4.2422-9.4727-9.4727zm-56.828 0c0-5.2266 4.2422-9.4727 9.4727-9.4727 5.2266 0 9.4727 4.2422 9.4727 9.4727v151.55c0 5.2266-4.2422 9.4727-9.4727 9.4727-5.2266 0-9.4727-4.2422-9.4727-9.4727zm-56.832 0c0-5.2266 4.2422-9.4727 9.4727-9.4727 5.2266 0 9.4727 4.2422 9.4727 9.4727v151.55c0 5.2266-4.2422 9.4727-9.4727 9.4727-5.2266 0-9.4727-4.2422-9.4727-9.4727z" fill="#2979e4"/>
</svg>
