<?xml version="1.0" encoding="UTF-8"?>
<svg width="752pt" height="752pt" version="1.1" viewBox="0 0 752 752" xmlns="http://www.w3.org/2000/svg">
 <g fill="#2979e4">
  <path d="m398.99 261.06-189.43 189.43c-1.9727 1.9727-3.2578 4.5391-3.5508 7.3008l-10.457 87.91c-0.98828 7.8945 5.625 14.602 13.516 13.812l85.836-8.7812c2.8594-0.29688 5.4258-1.5781 7.5-3.5508l191.31-191.31c4.8359-4.8359 4.8359-12.629 0-17.465l-77.254-77.152c-4.8359-4.8359-12.629-4.8359-17.465 0z"/>
  <path d="m552.11 270.04-73.012-73.012c-6.1172-6.0195-15.984-6.0195-22.102 0l-30.488 30.488c-6.0195 6.0195-6.0195 15.688 0 21.707l73.012 73.012c6.1172 6.0195 15.984 6.0195 22.102 0l30.488-30.488c6.0195-6.0195 6.0195-15.688 0-21.707z"/>
 </g>
</svg>
