<?xml version="1.0" encoding="UTF-8"?>
<svg width="752pt" height="752pt" version="1.1" viewBox="0 0 752 752" xmlns="http://www.w3.org/2000/svg">
 <defs>
  <clipPath id="a">
   <path d="m139.21 139.21h473.58v473.58h-473.58z"/>
  </clipPath>
 </defs>
 <g clip-path="url(#a)">
  <path d="m552.75 425.52c-0.59766 0-1.1992-0.0625-1.8086-0.20703-4.2461-1-6.8828-5.25-5.8867-9.4961 3.0391-12.91 4.5781-26.312 4.5859-39.828 0.007813-4.3555 3.543-7.8828 7.8945-7.8828h0.007813c4.3633 0.007812 7.8906 3.543 7.8828 7.8984-0.007813 14.723-1.6875 29.332-4.9961 43.43-0.85938 3.6289-4.0977 6.0859-7.6797 6.0859zm-4.9336 30.348c-17.34 37.238-47.27 68.434-84.266 87.824-1.1758 0.61719-2.4219 0.90234-3.6602 0.90234-2.8438 0-5.5898-1.5312-6.9961-4.2227-2.0273-3.8594-0.53516-8.6367 3.3242-10.656 33.949-17.801 61.398-46.395 77.289-80.516 1.8477-3.9492 6.543-5.6758 10.488-3.8203 3.957 1.8359 5.6602 6.5352 3.8203 10.488zm-103.1-44.629c9.2344 9.2266 9.2344 24.258 0 33.484-4.6094 4.6172-10.68 6.9297-16.742 6.9297s-12.121-2.3125-16.738-6.9297l-35.242-35.242-35.234 35.242c-9.2383 9.2344-24.258 9.2344-33.492 0-9.2344-9.2266-9.2344-24.258 0-33.484l35.242-35.242-35.242-35.242c-9.2344-9.2266-9.2344-24.254 0-33.48 9.2344-9.2344 24.254-9.2344 33.492 0l35.234 35.242 35.242-35.242c9.2344-9.2344 24.254-9.2344 33.48 0 9.2344 9.2266 9.2344 24.254 0 33.48l-35.234 35.242zm-19.355 147.52c-16.148 4.418-32.754 6.668-49.359 6.6758h-0.007812c-4.3516 0-7.8867-3.5273-7.8945-7.8867 0-4.3633 3.5273-7.8906 7.8945-7.8984 15.191-0.007812 30.402-2.0703 45.203-6.1172 4.1641-1.1602 8.5469 1.3242 9.6992 5.5312 1.1523 4.207-1.3281 8.543-5.5352 9.6953zm-203.79-262.25c-1.4023 2.7227-4.168 4.2773-7.0312 4.2773-1.207 0-2.4453-0.27734-3.6055-0.875-3.8711-2-5.4023-6.7578-3.4023-10.633 18.594-36.109 49.328-65.883 86.547-83.832 3.9219-1.8945 8.6328-0.25391 10.535 3.6797 1.8945 3.9297 0.24609 8.6406-3.6758 10.535-34.148 16.473-62.332 43.758-79.367 76.848zm-12.855 32.746c-4.2227 15.156-6.3633 30.879-6.3711 46.75 0 4.3594-3.5273 7.8867-7.8945 7.8867-4.3555 0-7.8906-3.5352-7.8906-7.8945 0.007813-17.293 2.3438-34.445 6.9453-50.973 1.168-4.1992 5.5078-6.6445 9.7148-5.4844 4.207 1.168 6.6641 5.5156 5.4961 9.7148zm120.91-136.81c15.227-3.8906 30.824-5.8633 46.359-5.8789h0.007812c4.3555 0 7.8906 3.5273 7.8906 7.8828 0.007813 4.3672-3.5195 7.9023-7.8828 7.9023-14.227 0.015626-28.512 1.8242-42.465 5.3828-0.65625 0.17188-1.3125 0.24609-1.957 0.24609-3.5234 0-6.7344-2.3711-7.6406-5.9375-1.082-4.2227 1.4648-8.5234 5.6875-9.5977zm46.367-53.238c-130.57 0-236.79 106.22-236.79 236.79s106.23 236.79 236.79 236.79 236.79-106.23 236.79-236.79-106.22-236.79-236.79-236.79z" fill="#ff001b" fill-rule="evenodd"/>
 </g>
 <path d="m422.4 318.43-40.82 40.824c-3.0781 3.0781-8.0742 3.0781-11.16 0l-40.824-40.824c-2.9844-2.9766-8.1758-2.9766-11.16 0-1.4844 1.4922-2.3047 3.4727-2.3047 5.582 0 2.1055 0.82031 4.0859 2.3047 5.5781l40.82 40.824c3.0898 3.0859 3.0898 8.0742 0 11.16l-40.82 40.824c-1.4844 1.4922-2.3047 3.4727-2.3047 5.5781 0 2.1094 0.82031 4.0898 2.3047 5.582 2.9844 2.9766 8.1758 2.9766 11.16 0l40.824-40.824c1.5391-1.5391 3.5586-2.3125 5.5781-2.3125s4.043 0.77344 5.582 2.3125l40.82 40.824c2.9844 2.9766 8.1797 2.9766 11.16 0 1.4922-1.4922 2.3164-3.4727 2.3164-5.582 0-2.1055-0.82422-4.0859-2.3164-5.5781l-40.82-40.824c-3.0781-3.0859-3.0781-8.0742 0-11.16l40.82-40.824c1.4922-1.4922 2.3164-3.4727 2.3164-5.5781 0-2.1094-0.82422-4.0898-2.3164-5.582-2.9805-2.9766-8.1758-2.9766-11.16 0" fill="#ff001b" fill-rule="evenodd"/>
</svg>
