<?xml version="1.0" encoding="UTF-8"?>
<svg width="752pt" height="752pt" version="1.1" viewBox="0 0 752 752" xmlns="http://www.w3.org/2000/svg">
 <path d="m376 233.93c-78.93 0-142.07 63.145-142.07 142.07s63.145 142.07 142.07 142.07 142.07-63.145 142.07-142.07-63.145-142.07-142.07-142.07zm74.195 105.77-86.824 94.715c-3.1562 3.1562-7.8906 4.7344-11.047 4.7344s-7.8945-1.5781-11.051-4.7344l-39.465-42.621c-6.3125-6.3125-4.7344-15.785 1.5781-22.102 6.3125-6.3125 15.785-4.7344 22.102 1.5781l26.836 29.992 75.773-82.086c6.3125-6.3125 15.785-6.3125 22.102-1.5781 6.3125 4.7344 6.3125 15.785-0.003907 22.102z" fill="#70d258"/>
</svg>
