<?xml version="1.0" encoding="UTF-8"?>
<svg width="752pt" height="752pt" version="1.1" viewBox="0 0 752 752" xmlns="http://www.w3.org/2000/svg">
 <path d="m587.69 525.65-188.48-326.3c-10.418-17.996-36.465-17.996-46.883 0l-188.48 326.3c-10.418 17.996 2.3672 40.727 23.207 40.727h376.97c21.309 0.003906 34.094-22.73 23.676-40.727zm-217.85-226.37c11.367-2.8398 22.73 2.8398 27.941 13.262 1.8945 3.7891 2.3672 8.0508 1.8945 11.84-0.94531 11.84-1.4219 23.68-1.8945 35.992-0.94531 18.469-2.3672 37.414-3.3164 55.883-0.47266 5.6836-0.47266 11.367-0.94531 17.523-0.47266 9.9453-8.0508 17.523-17.996 17.523-9.4727 0-17.523-7.5781-17.996-17.051-1.4219-28.887-3.3164-57.777-4.7344-86.664-0.47266-7.5781-0.94531-15.629-1.4219-23.207 0-11.367 7.5781-22.262 18.469-25.102zm6.1562 216.9c-13.262 0-23.68-10.891-23.68-24.152 0-13.262 10.891-24.152 24.152-24.152 13.262 0 23.68 10.891 23.68 24.625-0.47266 12.789-11.363 23.68-24.152 23.68z" fill="#ff001b"/>
</svg>
